<svg xmlns="http://www.w3.org/2000/svg" viewBox="0 0 1200 675" width="100%" height="100%">
  <defs>
    <!-- Background Gradient -->
    <linearGradient id="bgGrad" x1="0%" y1="0%" x2="100%" y2="100%">
      <stop offset="0%" stop-color="#020617" />
      <stop offset="100%" stop-color="#1e1b4b" />
    </linearGradient>

    <!-- Aurora Blur Filter -->
    <filter id="auroraGlow" x="-20%" y="-20%" width="140%" height="140%">
      <feGaussianBlur stdDeviation="80" result="blur" />
      <feComposite in="SourceGraphic" in2="blur" operator="over" />
    </filter>

    <!-- Card Shadow -->
    <filter id="cardShadow" x="-10%" y="-10%" width="120%" height="120%">
      <feDropShadow dx="0" dy="16" stdDeviation="24" flood-color="#000000" flood-opacity="0.45" />
    </filter>
  </defs>

  <!-- Base background -->
  <rect width="1200" height="675" rx="0" fill="url(#bgGrad)" />

  <!-- Aurora Glows -->
  <circle cx="250" cy="200" r="300" fill="#a21caf" opacity="0.3" filter="url(#auroraGlow)" />
  <circle cx="950" cy="450" r="350" fill="#a21caf" opacity="0.25" filter="url(#auroraGlow)" />

  <!-- Decorative Pattern -->
  <g opacity="0.15">
      <line x1="100" y1="100" x2="300" y2="200" stroke="#a21caf" stroke-width="2" />
      <line x1="300" y1="200" x2="200" y2="400" stroke="#a21caf" stroke-width="2" />
      <line x1="200" y1="400" x2="500" y2="300" stroke="#a21caf" stroke-width="2" />
      <line x1="500" y1="300" x2="700" y2="500" stroke="#a21caf" stroke-width="2" />
      <line x1="700" y1="500" x2="900" y2="200" stroke="#a21caf" stroke-width="2" />
      <line x1="900" y1="200" x2="1100" y2="450" stroke="#a21caf" stroke-width="2" />
      <circle cx="100" cy="100" r="8" fill="#a21caf" />
      <circle cx="300" cy="200" r="12" fill="#d946ef" />
      <circle cx="200" cy="400" r="10" fill="#a21caf" />
      <circle cx="500" cy="300" r="14" fill="#d946ef" />
      <circle cx="700" cy="500" r="9" fill="#a21caf" />
      <circle cx="900" cy="200" r="16" fill="#d946ef" />
      <circle cx="1100" cy="450" r="11" fill="#a21caf" />
    </g>

  <!-- Border Frame -->
  <rect x="25" y="25" width="1150" height="625" rx="20" fill="none" stroke="#a21caf" stroke-opacity="0.25" stroke-width="2" />

  <!-- Accent Corner Highlights -->
  <path d="M 25 100 L 25 45 A 20 20 0 0 1 45 25 L 100 25" fill="none" stroke="#a21caf" stroke-width="4" stroke-linecap="round" />
  <path d="M 1175 575 L 1175 630 A 20 20 0 0 1 1155 650 L 1100 650" fill="none" stroke="#a21caf" stroke-width="4" stroke-linecap="round" />

  <!-- Glassmorphic Card Container -->
  <rect x="75" y="75" width="1050" height="525" rx="16" fill="#ffffff" fill-opacity="0.03" stroke="#ffffff" stroke-opacity="0.08" stroke-width="1" filter="url(#cardShadow)" />

  <!-- Category Icon (Decor) -->
  <g transform="translate(1000, 100) scale(4)" stroke="#a21caf" fill="none" opacity="0.35">
    <path stroke-linecap="round" stroke-linejoin="round" stroke-width="1.5" d="M12 18h.01M8 21h8a2 2 0 002-2V5a2 2 0 00-2-2H8a2 2 0 00-2 2v14a2 2 0 002 2z" />
           <path stroke-linecap="round" stroke-linejoin="round" stroke-width="1.5" d="M9 9h6M9 13h6" />
  </g>

  <!-- Category Badge -->
  <g transform="translate(100, 130)">
    <rect width="120" height="40" rx="20" fill="#a21caf" fill-opacity="0.2" stroke="#a21caf" stroke-opacity="0.4" stroke-width="1.5" />
    <text x="60" y="24" font-family="'Space Grotesk', Inter, system-ui, sans-serif" font-size="12" font-weight="800" fill="#ffffff" fill-opacity="0.9" letter-spacing="2" text-anchor="middle">AIML</text>
  </g>

  <!-- Project Title -->
  <text x="100" y="330" font-family="'Space Grotesk', Inter, system-ui, sans-serif" font-size="64" font-weight="800" fill="#ffffff" letter-spacing="-1.5">Image Classifier</text>

  <!-- Watermark logo -->
  <g transform="translate(1100, 560)" text-anchor="end">
    <text font-family="'Space Grotesk', Inter, system-ui, sans-serif" font-size="20" font-weight="800" fill="#ffffff" fill-opacity="0.45" letter-spacing="4">CRADLE</text>
    <text y="22" font-family="'Space Grotesk', Inter, system-ui, sans-serif" font-size="10" font-weight="600" fill="#ffffff" fill-opacity="0.25" letter-spacing="1">EXPERIMENT SHOWCASE</text>
  </g>
</svg>